HIERARCHY
ROOT Hips
{
  OFFSET 133.721 92.5478 -7.45119
  CHANNELS 6 Xposition Yposition Zposition Zrotation Xrotation Yrotation
  JOINT ToSpine
  {
    OFFSET -2.69724 7.43032 -0.144315
    CHANNELS 3 Zrotation Xrotation Yrotation
    JOINT Spine
    {
      OFFSET -0.0310711 10.7595 1.96963
      CHANNELS 3 Zrotation Xrotation Yrotation
      JOINT Spine1
      {
        OFFSET 13.1342 3.43533 0.764692
        CHANNELS 3 Zrotation Xrotation Yrotation
        JOINT Neck
        {
          OFFSET 29.8703 7.82586 -0.130764
          CHANNELS 3 Zrotation Xrotation Yrotation
          JOINT Head
          {
            OFFSET 9.52751 0.295786 -0.907742
            CHANNELS 3 Zrotation Xrotation Yrotation
            End Site
            {
              OFFSET 16.4037 0.713936 2.7358
            }
          }
        }
        JOINT LeftShoulder
        {
          OFFSET 27.5574 4.95586 2.47156
          CHANNELS 3 Zrotation Xrotation Yrotation
          JOINT LeftArm
          {
            OFFSET 1.20734 -0.998971 20.1238
            CHANNELS 3 Zrotation Xrotation Yrotation
            JOINT LeftForeArm
            {
              OFFSET 26.8049 -0.0536703 -0.155908
              CHANNELS 3 Zrotation Xrotation Yrotation
              JOINT LeftHand
              {
                OFFSET 26.6817 0 0.320147
                CHANNELS 3 Zrotation Xrotation Yrotation
                End Site
                {
                  OFFSET 18.6119 0 0.382219
                }
              }
            }
          }
        }
        JOINT RightShoulder
        {
          OFFSET 27.5927 4.71444 -2.65209
          CHANNELS 3 Zrotation Xrotation Yrotation
          JOINT RightArm
          {
            OFFSET 2.83739 -1.17114 -18.7564
            CHANNELS 3 Zrotation Xrotation Yrotation
            JOINT RightForeArm
            {
              OFFSET 28.839 -0.0548439 1.22491
              CHANNELS 3 Zrotation Xrotation Yrotation
              JOINT RightHand
              {
                OFFSET 26.5114 0 -0.101894
                CHANNELS 3 Zrotation Xrotation Yrotation
                End Site
                {
                  OFFSET 18.2168 0 0
                }
              }
            }
          }
        }
      }
    }
  }
  JOINT LeftUpLeg
  {
    OFFSET -4.76168 -1.9167 -10.2353
    CHANNELS 3 Zrotation Xrotation Yrotation
    JOINT LeftLeg
    {
      OFFSET 2.55951 -42.0585 -8.02213
      CHANNELS 3 Zrotation Xrotation Yrotation
      JOINT LeftFoot
      {
        OFFSET 3.16357 -42.5282 -3.95426
        CHANNELS 3 Zrotation Xrotation Yrotation
        JOINT LeftToeBase
        {
          OFFSET 0.346054 -6.02161 12.8035
          CHANNELS 3 Zrotation Xrotation Yrotation
          End Site
          {
            OFFSET 0.134235 -1.35082 5.13018
          }
        }
      }
    }
  }
  JOINT RightUpLeg
  {
    OFFSET -4.94151 -1.41743 10.6446
    CHANNELS 3 Zrotation Xrotation Yrotation
    JOINT RightLeg
    {
      OFFSET -2.56294 -42.0364 -7.94377
      CHANNELS 3 Zrotation Xrotation Yrotation
      JOINT RightFoot
      {
        OFFSET -3.0952 -42.555 -4.02241
        CHANNELS 3 Zrotation Xrotation Yrotation
        JOINT RightToeBase
        {
          OFFSET -0.0828122 -6.13587 12.8035
          CHANNELS 3 Zrotation Xrotation Yrotation
          End Site
          {
            OFFSET -0.131328 -1.35082 5.13018
          }
        }
      }
    }
  }
}
MOTION
Frames:	15
Frame Time:	0.0333333
133.835 92.5728 -7.55881 -70.6377 -16.4337 -175.98 -70.1915 0 88.8779 82.9073 70.9479 10.1696 7.13708 21.4506 -2.29893 -138.015 3.95718 -163.666 -141.7 37.4597 -177.02 -0.37441 -15.5149 -37.4886 -138.802 16.6673 -55.3261 11.2314 2.6242 -76.4766 0.420957 0.000575851 0.35866 -1.58011 6.97052 37.1396 -38.6983 -24.9071 136.887 17.6529 5.2216 105.659 0.58676 0.000331284 0.0646652 -41.2525 19.2012 102.127 -1.64159 34.0845 -1.99945 -3.37115 1.93676 0.552384 3.6876 -6.30186 -6.16445 -48.0188 -13.925 89.1408 2.42496 40.8753 4.63333 -16.749 -2.34712 2.16167 0.912286 -31.4909 -24.7224 
133.792 92.5884 -7.5245 -70.6293 -16.5253 -175.999 -70.1915 0 88.8779 82.3094 71.0572 10.4092 7.13039 21.4592 -1.77718 -138.016 4.06381 -163.668 -141.748 37.563 -177.069 -0.455166 -15.7348 -37.8889 -138.47 16.6719 -55.4596 10.6301 2.47153 -76.527 0.420957 0.000575851 0.35866 -1.5314 6.89126 36.7093 -38.7611 -25.1191 136.908 17.7495 5.23763 105.619 0.58676 0.000331284 0.0646652 -41.2103 19.1049 102.024 -1.69954 34.1971 -2.47192 -3.28972 2.0244 0.549659 3.54878 -6.33764 -4.92118 -48.1213 -13.9859 89.1136 2.43527 40.8061 4.74672 -16.8281 -2.2594 2.1764 0.848649 -31.5748 -25.1406 
133.703 92.5334 -7.41899 -70.536 -16.5252 -175.841 -70.1915 0 88.8779 81.5406 71.0489 11.3144 7.32146 21.4654 -1.64171 -138.244 4.09432 -163.36 -142.194 37.7179 -176.628 -0.493264 -15.8277 -38.1266 -138.179 16.7704 -55.532 10.2014 2.37673 -76.4961 0.420957 0.000575851 0.35866 -1.52408 6.88635 36.6212 -39.1771 -25.3191 136.635 16.624 4.98654 105.911 0.58676 0.000331284 0.0646652 -40.9982 19.276 102.019 -1.69536 34.6067 -2.24083 -3.57062 1.65314 0.550867 3.82388 -6.68203 -6.013 -48.1142 -13.9858 88.952 2.41028 40.8011 4.52608 -16.9325 -2.57469 2.16616 0.957334 -31.2649 -24.6085 
133.633 92.4428 -7.23417 -70.4857 -16.6856 -175.459 -70.1915 0 88.8779 82.5827 71.0887 10.6045 6.89563 21.4983 -1.59055 -138.37 3.95086 -163.908 -142.068 37.602 -177.008 -0.585866 -16.1342 -38.2694 -137.919 16.5547 -55.5471 10.0098 2.36684 -76.3117 0.420957 0.000575851 0.35866 -1.49098 6.68159 36.8548 -39.1096 -25.3248 136.29 17.062 5.09516 105.826 0.58676 0.000331284 0.0646652 -40.3816 19.5776 101.795 -1.81436 35.5934 -2.7994 -3.26829 1.31923 0.47193 3.97568 -7.24857 -5.32072 -48.2268 -14.1524 88.1383 2.37845 40.8502 4.31576 -16.9692 -3.73727 2.0899 1.22567 -29.8251 -23.5482 
133.558 92.2871 -6.91237 -70.3132 -17.0165 -174.71 -70.1915 0 88.8779 81.0977 71.1336 12.6157 7.61424 21.6319 -1.67068 -138.92 3.65193 -165.706 -141.43 37.3403 -178.477 -0.735996 -16.6899 -38.2084 -137.569 16.6436 -56.0691 10.7703 2.61332 -75.9975 0.420957 0.000575851 0.35866 -1.36834 6.15474 36.928 -39.5899 -25.237 135.865 16.3704 4.86917 105.793 0.58676 0.000331284 0.0646652 -39.0728 20.206 101.435 -2.07174 37.6043 -3.87929 -2.60263 0.289133 0.276698 3.84794 -7.31523 -3.92952 -48.6369 -14.2711 86.8221 2.46817 40.5695 6.0884 -17.2013 -2.85986 2.17488 0.820963 -30.7928 -26.0744 
133.55 92.0608 -6.39049 -70.2608 -17.0677 -173.989 -70.1915 0 88.8779 83.6387 71.0021 11.5018 7.3617 21.6007 -2.37577 -139.907 3.30772 -165.626 -142.461 37.3867 -177.845 -0.664689 -16.5203 -37.8026 -137.025 16.7192 -56.6329 11.6949 2.77564 -76.2912 0.420957 0.000575851 0.35866 -1.4376 6.49937 36.7055 -40.039 -25.5418 135.618 16.3222 4.58411 104.947 0.58676 0.000331284 0.0646652 -37.6391 21.2245 101.544 -2.44588 40.3694 -5.32685 -1.96643 -1.61053 0.00679758 3.42367 -7.29549 -0.519821 -48.8779 -14.4897 85.5418 2.45227 40.5333 6.83438 -17.0534 -3.52777 2.11179 0.933357 -30.0841 -25.8494 
133.635 91.6481 -5.61308 -69.9201 -17.0844 -173.439 -70.1915 0 88.8779 86.7727 70.8882 9.4346 6.19513 21.5001 -2.47839 -140.708 3.2083 -164.757 -143.81 37.7204 -176.349 -0.521327 -16.0977 -37.3114 -135.968 16.4862 -57.5228 12.8477 2.79328 -77.3648 0.420957 0.000575851 0.35866 -1.48443 6.80294 36.3319 -41.2175 -26.2212 133.995 16.5256 4.13259 103.345 0.58676 0.000331284 0.0646652 -35.8528 22.1437 101.914 -2.76795 43.7354 -5.49205 -2.33165 -4.11789 -0.194131 3.92056 -9.19489 3.56136 -48.5016 -15.1736 84.4998 2.50242 40.8127 6.80831 -17.8849 -2.85364 2.2502 0.938302 -31.2852 -24.7125 
133.824 91.3705 -4.44559 -69.9679 -16.7896 -173.549 -70.1915 0 88.8779 89.9352 71.3002 6.62042 5.17542 21.9328 -2.37004 -141.491 2.87058 -165.995 -144.179 37.5874 -177.092 -0.32027 -15.649 -35.7896 -134.447 16.8465 -59.5968 14.0661 2.6742 -78.843 0.420957 0.000575851 0.35866 -1.51025 6.70605 37.0557 -43.6552 -26.0818 129.806 16.8232 3.69271 101.729 0.58676 0.000331284 0.0646652 -34.9536 22.8807 103.454 -2.84808 47.0456 -3.33757 -1.00375 -6.65906 -0.538738 3.39374 -8.66007 5.82709 -48.2142 -16.1414 84.3392 2.48254 40.993 7.38325 -19.3603 -1.59573 2.51513 0.72477 -32.1957 -25.5152 
134.104 91.124 -2.78269 -70.0573 -16.6936 -173.942 -70.1915 0 88.8779 93.1623 71.6183 3.86823 4.28098 22.2635 -2.188 -142.028 2.96042 -166.591 -144.174 37.6716 -177.998 -0.0516031 -14.9071 -33.8881 -132.611 17.4196 -63.6398 15.7161 2.66273 -80.0008 0.420957 0.000575851 0.35866 -1.48176 6.61664 36.9599 -47.0384 -26.4829 125.2 16.2326 2.63957 98.7095 0.58676 0.000331284 0.0646652 -34.8125 22.7892 105.522 -2.6562 49.397 0.508808 1.47387 -8.19865 -0.824609 2.86644 -7.96485 7.10427 -48.6458 -16.9726 85.3727 1.78041 39.8795 6.53782 -18.4951 -0.447512 2.50986 0.859141 -33.5395 -23.6297 
134.446 91.3061 -0.541738 -69.6973 -17.1996 -174.228 -70.1915 0 88.8779 93.5387 71.8063 3.74076 3.76034 22.1706 -1.01387 -142.107 3.48424 -166.244 -144.145 38.0805 -178.423 0.0810733 -14.598 -32.4403 -131.189 17.0443 -69.9274 16.3322 2.74037 -80.1106 0.420957 0.000575851 0.35866 -1.38666 6.35306 36.457 -52.5152 -28.8332 117.04 14.4726 1.46627 95.2663 0.58676 0.000331284 0.0646652 -35.2422 21.0578 107.141 -2.3175 49.326 2.54827 1.58211 -8.14906 -0.82116 3.00944 -7.98685 6.00578 -49.2768 -17.9469 85.978 0.36877 37.9884 5.94475 -17.0551 1.26791 2.44587 1.0594 -32.5439 -22.9416 
134.796 91.6657 2.15613 -69.5495 -18.5077 -175.602 -70.1915 0 88.8779 89.6029 71.7978 5.51066 4.06156 21.3855 1.76214 -141.938 4.14703 -165.854 -143.876 38.5261 -179.026 0.187856 -14.4717 -30.4507 -130.544 16.2451 -78.2694 18.2766 3.37429 -79.265 0.420957 0.000575851 0.35866 -1.36262 6.03044 37.3236 -60.6087 -28.8285 105.78 12.6408 0.428454 92.3223 0.58676 0.000331284 0.0646652 -36.2395 17.2954 108.278 -2.29568 48.4187 2.01532 0.0575262 -7.37119 -0.675305 3.35709 -8.77686 6.72811 -49.6399 -19.8538 87.4286 -0.664103 37.3446 3.39142 -16.743 4.28297 2.60612 0.329725 -31.0507 -29.6526 
135.508 91.9752 4.64473 -69.6888 -18.238 -177.25 -70.1915 0 88.8779 89.9631 71.9895 2.71593 3.47365 20.6541 4.86659 -142.17 4.13353 -166 -143.476 38.3495 -179.881 0.366571 -14.3577 -26.51 -130.734 14.233 -87.2628 16.5257 3.96789 -76.2753 0.420957 0.000575851 0.35866 -1.43473 5.83387 39.3594 -70.1533 -26.6764 94.1204 9.15138 0.037468 89.1422 0.58676 0.000331284 0.0646652 -37.6204 15.3241 111.7 -2.22094 47.8083 2.06201 1.06863 -7.71717 -0.764179 3.22434 -8.41724 6.16535 -46.2564 -19.7014 91.5187 0.834878 41.6083 -9.07821 -16.9363 3.45737 2.58527 0.944584 -25.4149 -33.5733 
136.257 92.4312 6.61767 -70.639 -17.784 -178.58 -70.1915 0 88.8779 96.0547 71.2937 -6.93205 1.66123 18.6762 9.25246 -142.85 3.12073 -166.25 -142.739 37.1492 179.123 0.682664 -13.6007 -20.3368 -131.598 10.8344 -94.5276 16.714 5.1982 -72.6331 0.420957 0.000575851 0.35866 -1.46471 5.64635 40.734 -76.0198 -23.4907 86.42 1.31017 -0.088969 87.8401 0.58676 0.000331284 0.0646652 -39.8213 14.2653 115.036 -2.21529 46.7308 1.41489 2.04719 -7.75617 -0.827111 3.00342 -7.80625 5.22575 -41.3525 -18.4702 88.8945 2.13578 51.505 -7.77395 -17.2139 0.0417672 2.38914 1.11824 -23.7601 -36.4775 
136.46 92.8597 8.4157 -71.4761 -18.0806 -179.999 -70.1915 0 88.8779 96.7875 70.061 -12.3362 1.27658 15.7171 14.8861 -144.146 2.22772 -163.954 -143.83 36.4215 179.957 0.962731 -12.1042 -13.3513 -131.466 6.16449 -99.5872 17.156 6.94957 -68.0463 0.420957 0.000575851 0.35866 -1.16889 5.03233 38.3804 -75.8254 -22.2311 82.4006 -4.06263 -0.0146895 90.2767 0.58676 0.000331284 0.0646652 -41.5718 11.8054 116.062 -2.1008 45.814 1.58618 1.31066 -7.5814 -0.769165 2.92407 -7.34978 3.92369 -36.8866 -15.6108 85.786 5.39716 61.8851 0.565336 -20.2092 0.539113 2.82493 -0.918647 -33.191 -35.7693 
135.97 93.668 10.6471 -71.4284 -18.9723 179.011 -70.1915 0 88.8779 91.242 68.29 -7.99125 3.06299 13.0463 17.0168 -144.02 1.88156 -160.984 -144.291 35.8852 -179.009 1.04979 -10.2694 -5.75761 -129.4 2.1003 -100.779 16.9614 8.22732 -64.3314 0.420957 0.000575851 0.35866 -0.909905 4.59022 35.1479 -68.0721 -20.5313 80.5102 -5.05198 -0.536938 95.8105 0.58676 0.000331284 0.0646652 -42.4396 8.44614 115.359 -1.9432 44.9094 1.865 -0.478417 -5.74021 -0.507167 3.84026 -9.14517 4.08488 -34.5974 -13.2793 79.5626 8.21 65.7499 6.73665 -18.5068 -1.23705 2.44616 -1.78818 -39.205 -33.4486 
